<mxfile host="Electron" modified="2023-08-24T19:22:42.384Z" agent="Mozilla/5.0 (Macintosh; Intel Mac OS X 10_15_7) AppleWebKit/537.36 (KHTML, like Gecko) draw.io/21.6.8 Chrome/114.0.5735.289 Electron/25.5.0 Safari/537.36" etag="iPBmMdAY0rVRmI3s_xTU" version="21.6.8" type="device">
  <diagram name="Page-1" id="uuw_1OywVuRyF1z8Oiel">
    <mxGraphModel dx="1114" dy="821" grid="1" gridSize="10" guides="1" tooltips="1" connect="1" arrows="1" fold="1" page="1" pageScale="1" pageWidth="850" pageHeight="1100" math="0" shadow="0">
      <root>
        <mxCell id="0" />
        <mxCell id="1" parent="0" />
        <mxCell id="mSF4Q8D28jnnThv909HN-11" value="Input = year" style="rounded=0;whiteSpace=wrap;html=1;" vertex="1" parent="1">
          <mxGeometry x="500" y="80" width="120" height="60" as="geometry" />
        </mxCell>
        <mxCell id="mSF4Q8D28jnnThv909HN-12" value="" style="endArrow=classic;html=1;rounded=0;exitX=0.5;exitY=1;exitDx=0;exitDy=0;" edge="1" parent="1" source="mSF4Q8D28jnnThv909HN-11">
          <mxGeometry width="50" height="50" relative="1" as="geometry">
            <mxPoint x="540" y="450" as="sourcePoint" />
            <mxPoint x="560" y="240" as="targetPoint" />
          </mxGeometry>
        </mxCell>
        <mxCell id="mSF4Q8D28jnnThv909HN-16" style="edgeStyle=orthogonalEdgeStyle;rounded=0;orthogonalLoop=1;jettySize=auto;html=1;exitX=0.5;exitY=1;exitDx=0;exitDy=0;entryX=0.5;entryY=0;entryDx=0;entryDy=0;" edge="1" parent="1" source="mSF4Q8D28jnnThv909HN-13" target="mSF4Q8D28jnnThv909HN-14">
          <mxGeometry relative="1" as="geometry" />
        </mxCell>
        <mxCell id="mSF4Q8D28jnnThv909HN-20" style="edgeStyle=orthogonalEdgeStyle;rounded=0;orthogonalLoop=1;jettySize=auto;html=1;exitX=0.5;exitY=1;exitDx=0;exitDy=0;" edge="1" parent="1" source="mSF4Q8D28jnnThv909HN-13" target="mSF4Q8D28jnnThv909HN-19">
          <mxGeometry relative="1" as="geometry" />
        </mxCell>
        <mxCell id="mSF4Q8D28jnnThv909HN-13" value="Is the year divisible by 4?" style="rounded=0;whiteSpace=wrap;html=1;" vertex="1" parent="1">
          <mxGeometry x="500" y="240" width="120" height="60" as="geometry" />
        </mxCell>
        <mxCell id="mSF4Q8D28jnnThv909HN-25" style="edgeStyle=orthogonalEdgeStyle;rounded=0;orthogonalLoop=1;jettySize=auto;html=1;exitX=0.5;exitY=1;exitDx=0;exitDy=0;entryX=0.5;entryY=0;entryDx=0;entryDy=0;" edge="1" parent="1" source="mSF4Q8D28jnnThv909HN-14">
          <mxGeometry relative="1" as="geometry">
            <mxPoint x="250" y="570" as="targetPoint" />
          </mxGeometry>
        </mxCell>
        <mxCell id="mSF4Q8D28jnnThv909HN-28" style="edgeStyle=orthogonalEdgeStyle;rounded=0;orthogonalLoop=1;jettySize=auto;html=1;exitX=0.5;exitY=1;exitDx=0;exitDy=0;entryX=0.5;entryY=0;entryDx=0;entryDy=0;" edge="1" parent="1" source="mSF4Q8D28jnnThv909HN-14">
          <mxGeometry relative="1" as="geometry">
            <mxPoint x="520" y="570" as="targetPoint" />
          </mxGeometry>
        </mxCell>
        <mxCell id="mSF4Q8D28jnnThv909HN-14" value="Is the year divisible by 100?" style="rounded=0;whiteSpace=wrap;html=1;" vertex="1" parent="1">
          <mxGeometry x="330" y="420" width="120" height="60" as="geometry" />
        </mxCell>
        <mxCell id="mSF4Q8D28jnnThv909HN-17" value="Yes" style="text;html=1;strokeColor=none;fillColor=none;align=center;verticalAlign=middle;whiteSpace=wrap;rounded=0;" vertex="1" parent="1">
          <mxGeometry x="390" y="330" width="60" height="30" as="geometry" />
        </mxCell>
        <mxCell id="mSF4Q8D28jnnThv909HN-19" value="Not leap year" style="ellipse;whiteSpace=wrap;html=1;" vertex="1" parent="1">
          <mxGeometry x="660" y="420" width="120" height="80" as="geometry" />
        </mxCell>
        <mxCell id="mSF4Q8D28jnnThv909HN-21" value="No" style="text;html=1;strokeColor=none;fillColor=none;align=center;verticalAlign=middle;whiteSpace=wrap;rounded=0;" vertex="1" parent="1">
          <mxGeometry x="660" y="330" width="60" height="30" as="geometry" />
        </mxCell>
        <mxCell id="mSF4Q8D28jnnThv909HN-26" value="Yes" style="text;html=1;strokeColor=none;fillColor=none;align=center;verticalAlign=middle;whiteSpace=wrap;rounded=0;" vertex="1" parent="1">
          <mxGeometry x="250" y="500" width="60" height="30" as="geometry" />
        </mxCell>
        <mxCell id="mSF4Q8D28jnnThv909HN-30" value="No" style="text;html=1;strokeColor=none;fillColor=none;align=center;verticalAlign=middle;whiteSpace=wrap;rounded=0;" vertex="1" parent="1">
          <mxGeometry x="470" y="500" width="60" height="30" as="geometry" />
        </mxCell>
        <mxCell id="mSF4Q8D28jnnThv909HN-40" style="edgeStyle=orthogonalEdgeStyle;rounded=0;orthogonalLoop=1;jettySize=auto;html=1;exitX=0.5;exitY=1;exitDx=0;exitDy=0;entryX=0.5;entryY=0;entryDx=0;entryDy=0;" edge="1" parent="1" source="mSF4Q8D28jnnThv909HN-36" target="mSF4Q8D28jnnThv909HN-38">
          <mxGeometry relative="1" as="geometry" />
        </mxCell>
        <mxCell id="mSF4Q8D28jnnThv909HN-41" style="edgeStyle=orthogonalEdgeStyle;rounded=0;orthogonalLoop=1;jettySize=auto;html=1;exitX=0.5;exitY=1;exitDx=0;exitDy=0;" edge="1" parent="1" source="mSF4Q8D28jnnThv909HN-36" target="mSF4Q8D28jnnThv909HN-39">
          <mxGeometry relative="1" as="geometry" />
        </mxCell>
        <mxCell id="mSF4Q8D28jnnThv909HN-36" value="Is the year divisible by 400" style="rounded=0;whiteSpace=wrap;html=1;" vertex="1" parent="1">
          <mxGeometry x="180" y="570" width="120" height="60" as="geometry" />
        </mxCell>
        <mxCell id="mSF4Q8D28jnnThv909HN-37" value="Leap year" style="ellipse;whiteSpace=wrap;html=1;" vertex="1" parent="1">
          <mxGeometry x="460" y="570" width="120" height="80" as="geometry" />
        </mxCell>
        <mxCell id="mSF4Q8D28jnnThv909HN-38" value="Leap year" style="ellipse;whiteSpace=wrap;html=1;" vertex="1" parent="1">
          <mxGeometry x="10" y="720" width="120" height="80" as="geometry" />
        </mxCell>
        <mxCell id="mSF4Q8D28jnnThv909HN-39" value="Not leap year" style="ellipse;whiteSpace=wrap;html=1;" vertex="1" parent="1">
          <mxGeometry x="290" y="720" width="120" height="80" as="geometry" />
        </mxCell>
        <mxCell id="mSF4Q8D28jnnThv909HN-42" value="Yes" style="text;html=1;strokeColor=none;fillColor=none;align=center;verticalAlign=middle;whiteSpace=wrap;rounded=0;" vertex="1" parent="1">
          <mxGeometry x="70" y="650" width="60" height="30" as="geometry" />
        </mxCell>
        <mxCell id="mSF4Q8D28jnnThv909HN-43" value="No" style="text;html=1;strokeColor=none;fillColor=none;align=center;verticalAlign=middle;whiteSpace=wrap;rounded=0;" vertex="1" parent="1">
          <mxGeometry x="290" y="650" width="60" height="30" as="geometry" />
        </mxCell>
      </root>
    </mxGraphModel>
  </diagram>
</mxfile>
